HIERARCHY
ROOT Hips
{
  OFFSET 0 89.5146 0.535
  CHANNELS 6 Xposition Yposition Zposition Zrotation Xrotation Yrotation
  JOINT Spine
  {
    OFFSET 12.0259 -0.162855 1.69034e-005
    CHANNELS 3 Zrotation Xrotation Yrotation
    JOINT Spine1
    {
      OFFSET 15.3169 -0.0121922 0
      CHANNELS 3 Zrotation Xrotation Yrotation
      JOINT Spine2
      {
        OFFSET 15.3176 -0.0121908 0
        CHANNELS 3 Zrotation Xrotation Yrotation
        JOINT Neck
        {
          OFFSET 19.9142 1.56338 0
          CHANNELS 3 Zrotation Xrotation Yrotation
          JOINT Head
          {
            OFFSET 6.92651 0 0
            CHANNELS 3 Zrotation Xrotation Yrotation
            End Site
            {
              OFFSET 20.7666 0 0
            }
          }
          JOINT LeftShoulder
          {
            OFFSET -6.20654 0.708824 7.28219
            CHANNELS 3 Zrotation Xrotation Yrotation
            JOINT LeftArm
            {
              OFFSET 14.108 0 -1.52588e-005
              CHANNELS 3 Zrotation Xrotation Yrotation
              JOINT LeftForeArm
              {
                OFFSET 28.5802 0 0
                CHANNELS 3 Zrotation Xrotation Yrotation
                JOINT LeftHand
                {
                  OFFSET 27.092 0 0
                  CHANNELS 3 Zrotation Xrotation Yrotation
                  End Site
                  {
                    OFFSET 9.55928 -0.186424 0.145352
                  }
                }
              }
            }
          }
          JOINT RightShoulder
          {
            OFFSET -6.20654 0.708866 -7.28218
            CHANNELS 3 Zrotation Xrotation Yrotation
            JOINT RightArm
            {
              OFFSET 14.108 0 1.52588e-005
              CHANNELS 3 Zrotation Xrotation Yrotation
              JOINT RightForeArm
              {
                OFFSET 28.5802 0 0
                CHANNELS 3 Zrotation Xrotation Yrotation
                JOINT RightHand
                {
                  OFFSET 27.092 0 0
                  CHANNELS 3 Zrotation Xrotation Yrotation
                  End Site
                  {
                    OFFSET 9.55929 -0.186417 -0.145354
                  }
                }
              }
            }
          }
        }
      }
    }
  }
  JOINT LeftUpLeg
  {
    OFFSET 0.005 -0.535 8.837
    CHANNELS 3 Zrotation Xrotation Yrotation
    JOINT LeftLeg
    {
      OFFSET 39.9035 0 0
      CHANNELS 3 Zrotation Xrotation Yrotation
      JOINT LeftFoot
      {
        OFFSET 39.6689 0 0
        CHANNELS 3 Zrotation Xrotation Yrotation
        JOINT LeftToe
        {
          OFFSET 10.1624 13.6296 0
          CHANNELS 3 Zrotation Xrotation Yrotation
          End Site
          {
            OFFSET 8.38147 0 0
          }
        }
      }
    }
  }
  JOINT RightUpLeg
  {
    OFFSET 0.005 -0.535 -8.837
    CHANNELS 3 Zrotation Xrotation Yrotation
    JOINT RightLeg
    {
      OFFSET 39.9035 0 0
      CHANNELS 3 Zrotation Xrotation Yrotation
      JOINT RightFoot
      {
        OFFSET 39.6689 0 0
        CHANNELS 3 Zrotation Xrotation Yrotation
        JOINT RightToe
        {
          OFFSET 10.1624 13.6296 0
          CHANNELS 3 Zrotation Xrotation Yrotation
          End Site
          {
            OFFSET 8.38147 0 0
          }
        }
      }
    }
  }
}
MOTION
Frames:	16
Frame Time:	0.0333333
-2.42644 86.0912 -56.2259 -89.6902 -45.7843 174.362 17.1272 10.3089 -3.64631 8.43403 1.70754e-006 5.12264e-006 -5.12265e-006 1.70755e-006 -8.53773e-006 1.70748e-006 -8.53774e-006 -4.95189e-005 31.9182 -35.1699 25.5574 -179.32 -6.46218 -83.98 161.142 -14.2917 125.566 -0.0395771 -6.36111e-015 1.59028e-015 -157.321 77.8529 156.668 179.461 -5.48957 84.3788 -50.3372 -7.83524 -49.6034 -69.0928 4.77083e-015 3.18055e-015 45.6715 66.9724 -41.0669 -28.2554 2.96459 -179.499 -28.0993 -3.18055e-015 3.18055e-015 -0.843342 10.9752 5.88695 90 -1.98785e-016 -0 -23.6424 -19.1149 171.961 -68.7129 4.77083e-015 6.36111e-015 -16.429 17.1202 24.5348 90 -5.46658e-016 -0 
-1.47947 87.0027 -56.7718 -89.4563 -44.5642 174.075 16.1765 9.04037 -2.54409 8.33787 1.70754e-006 5.12264e-006 -5.12265e-006 1.70755e-006 -8.53773e-006 1.70748e-006 -8.53774e-006 -4.95189e-005 32.4821 -33.9334 25.2714 -179.517 -5.62353 -85.0854 162.569 -8.94822 128.86 -0.0395851 3.18055e-015 -5.96354e-016 -158.946 78.3388 158.915 179.466 -4.90959 83.7847 -45.8463 -9.77271 -49.348 -63.3251 0 -3.18055e-015 47.4631 68.2736 -42.5202 -25.7836 3.583 -178.441 -25.2224 0 3.97569e-016 -1.16026 10.765 5.70797 90 2.98177e-016 3.18055e-015 -24.8457 -19.6584 170.467 -66.2126 1.59028e-015 6.36111e-015 -15.8515 19.5563 21.925 90 -1.2921e-015 -1.59028e-015 
-0.527047 87.6309 -57.2858 -89.0667 -43.2555 174.091 15.411 7.55424 -1.82763 8.16841 1.70754e-006 5.12264e-006 -5.12265e-006 1.70755e-006 -8.53773e-006 1.70748e-006 -8.53774e-006 -4.95189e-005 32.8779 -32.4596 24.7392 -179.665 -5.18348 -86.2927 163.587 -4.06496 132.318 -0.00968541 -6.36111e-015 1.59028e-015 -161.059 78.0548 160.988 179.421 -4.75171 83.0461 -41.1781 -11.2783 -48.299 -58.7862 0 -3.18055e-015 43.0106 66.6871 -37.2638 -23.6977 4.30039 -177.579 -23.2471 3.18055e-015 3.57812e-015 -0.972578 10.4781 5.4811 90 6.21202e-017 -0 -25.4349 -19.6636 169.037 -63.2999 0 3.18056e-015 -15.2088 19.3638 20.8267 90 -3.97569e-016 1.59028e-015 
0.424028 88.051 -57.7446 -88.6872 -41.8596 174.275 14.723 6.13242 -1.43156 8.01333 1.70754e-006 5.12264e-006 -5.12265e-006 1.70755e-006 -8.53773e-006 1.70748e-006 -8.53774e-006 -4.95189e-005 33.1281 -30.9943 24.1413 -179.756 -4.89537 -87.1442 163.866 -0.0508461 136.485 -0.0197787 -6.36111e-015 -3.18055e-015 -158.971 76.5683 159.496 179.386 -4.40659 82.0541 -37.2626 -12.8181 -46.3505 -55.5894 -3.18055e-015 1.59028e-015 35.7195 63.1054 -29.2817 -22.0443 5.32917 -176.846 -22.0558 6.36111e-015 -3.97569e-016 -0.300812 10.3666 5.74371 90 1.98785e-016 -3.18055e-015 -25.6239 -19.7369 167.696 -59.7768 1.59028e-015 -0 -13.9445 20.0388 19.7356 90 4.47266e-016 3.18055e-015 
1.34548 88.3028 -58.1159 -88.3756 -40.4087 174.551 14.1386 4.97184 -1.27335 7.8164 1.70754e-006 5.12264e-006 -5.12265e-006 1.70755e-006 -8.53773e-006 1.70748e-006 -8.53774e-006 -4.95189e-005 33.3563 -29.5042 23.55 -179.862 -4.34128 -88.1746 164.739 3.57774 139.96 -0.0685501 6.36111e-015 -6.36111e-015 -160.103 74.759 161.007 179.431 -3.68991 81.2254 -34.2708 -13.5997 -44.38 -52.3482 -1.59028e-015 7.95139e-016 32.7022 61.8156 -25.9775 -20.7557 6.19281 -176.318 -21.3599 6.36111e-015 3.97569e-016 0.362018 9.98845 5.70054 90 -9.93923e-017 -3.18055e-015 -25.6755 -19.8285 166.38 -55.9759 0 -3.18056e-015 -13.0941 21.2975 18.3395 90 -6.33626e-016 -1.59028e-015 
2.22953 88.491 -58.3865 -88.1454 -38.9433 174.845 13.6842 3.85215 -1.24254 7.62209 1.70754e-006 5.12264e-006 -5.12265e-006 1.70755e-006 -8.53773e-006 1.70748e-006 -8.53774e-006 -4.95189e-005 33.3115 -27.9332 22.8683 -179.94 -3.99728 -89.1361 165.993 6.85345 142.65 -1.87931e-005 3.18055e-015 6.36111e-015 -162.182 74.0904 162.913 179.49 -3.10344 80.6663 -31.5417 -13.2735 -42.976 -49.0357 1.59028e-015 1.59028e-015 32.1921 62.5683 -25.1572 -19.6296 6.88074 -175.902 -20.7626 -3.18055e-015 7.95139e-016 0.785507 9.45729 5.15061 90 0 9.54166e-015 -25.2736 -19.9688 165.287 -51.2187 -3.18056e-015 -0 -12.6969 22.496 17.3447 90 -8.44835e-016 -3.18055e-015 
3.09233 88.6935 -58.5741 -88.0427 -37.2774 175.189 13.2742 3.13226 -1.41188 7.46001 1.70754e-006 5.12264e-006 -5.12265e-006 1.70755e-006 -8.53773e-006 1.70748e-006 -8.53774e-006 -4.95189e-005 33.1697 -26.4628 22.3346 -179.979 -4.00924 -89.7039 166.908 9.67631 144.897 -0.0442737 0 -6.36111e-015 -162.358 74.4671 163.355 179.486 -2.97463 80.1888 -28.0345 -11.9867 -42.2943 -46.4346 9.93923e-016 1.97542e-015 30.887 62.7883 -23.4182 -18.5278 7.76258 -175.592 -19.9921 -3.18055e-015 -3.97569e-016 1.21033 8.70292 5.30937 90 -3.97569e-016 -6.36111e-015 -24.3983 -19.8988 164.645 -45.1912 0 1.59028e-015 -12.9722 24.0496 16.5205 90 4.22417e-016 -0 
3.95806 88.8837 -58.6983 -88.056 -35.542 175.588 12.799 2.80446 -1.69611 7.3763 1.70754e-006 5.12264e-006 -5.12265e-006 1.70755e-006 -8.53773e-006 1.70748e-006 -8.53774e-006 -4.95189e-005 33.1437 -25.2996 21.8724 179.984 -4.06829 -90.2244 168.242 12.2278 145.853 -0.0815748 0 -3.18055e-015 -162.738 74.6174 163.968 179.488 -2.85597 79.8279 -24.5006 -10.0978 -42.348 -44.3144 1.59028e-015 7.95139e-016 28.4366 63.6594 -20.5151 -17.4126 8.65622 -175.447 -19.0699 6.36111e-015 2.38542e-015 1.53063 7.89716 5.26668 90 -1.98785e-016 -6.36111e-015 -23.4148 -19.8113 164.265 -38.9856 0 -3.18056e-015 -12.2647 24.5669 15.6078 90 5.2181e-016 -6.36111e-015 
4.85751 89.0095 -58.7213 -88.1186 -33.979 175.95 12.3244 2.49852 -1.90155 7.32602 1.70754e-006 5.12264e-006 -5.12265e-006 1.70755e-006 -8.53773e-006 1.70748e-006 -8.53774e-006 -4.95189e-005 33.1195 -24.1316 21.3162 179.959 -4.27405 -90.5446 169.589 14.0513 146.032 -0.0927694 6.36111e-015 -6.36111e-015 -161.302 74.9479 162.65 179.494 -2.76777 79.6289 -21.0718 -7.75255 -43.2066 -42.5443 -3.18055e-015 9.54166e-015 26.4242 65.6357 -18.3133 -16.5759 9.4993 -175.263 -18.5326 6.36111e-015 -0 1.96911 7.21588 5.30054 90 -1.98785e-016 6.36111e-015 -22.1 -20.1291 164.177 -32.3418 1.59028e-015 -0 -12.4982 23.0855 16.2267 90 7.95139e-016 -6.36111e-015 
5.78668 89.0348 -58.6459 -88.2187 -32.6573 176.439 11.8721 2.21854 -2.18803 7.29932 1.70754e-006 5.12264e-006 -5.12265e-006 1.70755e-006 -8.53773e-006 1.70748e-006 -8.53774e-006 -4.95189e-005 33.1145 -23.4221 20.8535 179.95 -4.53258 -90.6288 170.713 15.0062 145.777 -0.0998908 -3.18055e-015 -9.54166e-015 -160.115 75.0573 161.629 179.505 -2.64144 79.3908 -17.6715 -5.28518 -44.6139 -41.209 6.36111e-015 -6.55989e-015 25.9296 68.5353 -17.7678 -15.9918 10.1371 -175.224 -18.4401 0 -3.97569e-016 2.66302 6.49498 5.41179 90 3.97569e-016 -3.18055e-015 -20.7775 -20.829 164.073 -25.9339 -7.95139e-016 -1.59028e-015 -14.5446 20.8386 17.8509 90 0 6.36111e-015 
6.75328 88.9731 -58.4508 -88.3393 -31.4683 177.018 11.4603 2.13694 -2.55219 7.27382 1.70754e-006 5.12264e-006 -5.12265e-006 1.70755e-006 -8.53773e-006 1.70748e-006 -8.53774e-006 -4.95189e-005 33.1229 -22.9481 20.5342 179.968 -4.80765 -90.3784 171.401 15.1284 145.344 -0.0791704 3.18055e-015 3.18055e-015 -160.035 75.007 161.715 179.515 -2.52945 79.1311 -14.7094 -3.41064 -46.4546 -40.2156 -6.36111e-015 -1.25234e-014 25.6711 72.3642 -17.736 -15.6298 10.93 -175.157 -18.7053 6.36111e-015 3.97569e-016 3.41822 6.05401 5.28221 90 -7.95139e-016 9.54166e-015 -19.6202 -21.5333 164.322 -20.6012 0 -0 -17.733 19.3224 17.4291 90 1.59028e-015 -3.18055e-015 
7.72978 88.9324 -58.1159 -88.4602 -30.4502 177.452 11.1334 2.15914 -2.66572 7.19236 1.70754e-006 5.12264e-006 -5.12265e-006 1.70755e-006 -8.53773e-006 1.70748e-006 -8.53774e-006 -4.95189e-005 33.1797 -22.4442 20.1499 -179.98 -5.05332 -89.7727 171.653 14.3158 144.74 -5.55661e-006 -6.36111e-015 -0 -159.261 75.1472 161.115 179.52 -2.47231 79.0044 -12.6742 -2.40188 -48.5662 -39.354 3.18055e-015 4.67144e-015 24.957 75.565 -17.092 -15.4159 11.4988 -174.917 -19.0552 -6.36111e-015 -0 3.99027 5.59401 5.10274 90 -7.95139e-016 -9.54166e-015 -18.5361 -21.5649 164.892 -17.8594 -7.95139e-016 -1.59028e-015 -16.758 19.6535 16.8991 90 0 3.18055e-015 
8.72794 88.8794 -57.6653 -88.4449 -29.6708 177.874 10.9544 2.17016 -2.59093 7.16238 1.70754e-006 5.12264e-006 -5.12265e-006 1.70755e-006 -8.53773e-006 1.70748e-006 -8.53774e-006 -4.95189e-005 33.2016 -22.2005 19.7309 -179.918 -5.31895 -89.1168 171.49 12.7168 143.67 -3.64076e-005 3.18055e-015 6.36111e-015 -158.672 75.4681 160.6 179.547 -2.31554 78.9356 -12.0193 -2.31492 -50.6382 -38.6399 0 -1.0635e-014 23.588 76.8076 -15.5766 -15.2031 11.5631 -174.623 -19.559 6.36111e-015 -1.19271e-015 4.3863 4.97959 4.70444 90 0 3.18055e-015 -17.419 -20.6613 165.722 -17.4773 -7.95139e-016 -0 -14.2818 20.7834 16.2442 90 7.95139e-016 6.36111e-015 
9.73921 88.8341 -57.1372 -88.3058 -29.0117 178.364 10.8681 2.10919 -2.44934 7.22883 1.70754e-006 5.12264e-006 -5.12265e-006 1.70755e-006 -8.53773e-006 1.70748e-006 -8.53774e-006 -4.95189e-005 33.0401 -22.1089 19.0865 -179.839 -5.66644 -88.3673 171.145 10.6301 142.148 -0.0776287 3.18055e-015 -3.18055e-015 -160.981 75.5171 163.067 179.578 -2.15394 78.917 -12.8266 -2.96007 -52.5786 -37.8997 -3.18055e-015 9.93923e-016 23.5629 76.2144 -15.2804 -14.9077 11.5288 -174.302 -20.0869 6.36111e-015 -1.59028e-015 4.81951 4.29789 4.4797 90 -3.97569e-016 -9.54166e-015 -16.4771 -20.0708 166.394 -17.2984 0 1.59028e-015 -11.9441 21.9379 15.6761 90 7.95139e-016 -0 
10.7429 88.8109 -56.5311 -88.2677 -28.5418 178.782 10.7003 1.95814 -2.22466 7.26752 1.70754e-006 5.12264e-006 -5.12265e-006 1.70755e-006 -8.53773e-006 1.70748e-006 -8.53774e-006 -4.95189e-005 32.8839 -21.7279 18.3301 -179.746 -6.00629 -87.5693 170.502 7.86714 140.339 1.3817e-005 3.18055e-015 -3.18055e-015 -164.387 75.4691 166.146 179.611 -1.99436 78.9616 -14.7236 -4.19549 -54.4494 -37.2512 -3.18055e-015 -1.78906e-015 25.7143 74.791 -17.1327 -14.5169 11.5134 -173.976 -20.1623 -1.27222e-014 -1.98785e-015 5.00503 3.82352 4.08282 90 7.95139e-016 -0 -15.9792 -19.7999 166.955 -17.5578 7.95139e-016 4.77083e-015 -9.7361 22.7633 14.806 90 0 -0 
11.7495 88.8003 -55.8425 -88.2633 -28.2097 179.13 10.5455 1.77673 -1.9195 7.27329 1.70754e-006 5.12264e-006 -5.12265e-006 1.70755e-006 -8.53773e-006 1.70748e-006 -8.53774e-006 -4.95189e-005 32.6323 -21.2823 17.5632 -179.646 -6.34809 -86.8054 169.448 4.72949 138.316 -0.0989387 3.18055e-015 3.18055e-015 -167.868 75.0903 169.74 179.666 -1.7267 79.0459 -17.1752 -5.50828 -56.3054 -36.8735 -3.18055e-015 1.59028e-015 28.8829 72.3642 -19.8294 -14.0595 11.4797 -173.604 -19.9811 0 3.18055e-015 5.14924 3.54488 3.45771 90 3.97569e-016 -0 -15.5944 -19.2705 167.553 -18.1384 -1.59028e-015 -0 -7.66166 23.5585 13.9457 90 0 -0 
